<?xml version="1.0" encoding="UTF-8" standalone="no"?>
<!-- Created with Inkscape (http://www.inkscape.org/) -->

<svg
   version="1.1"
   id="svg2"
   width="233.79601"
   height="182.48399"
   viewBox="0 0 233.79601 182.48399"
   sodipodi:docname="CBA-logo-cyan.svg"
   inkscape:version="1.2.2 (732a01da63, 2022-12-09)"
   xmlns:inkscape="http://www.inkscape.org/namespaces/inkscape"
   xmlns:sodipodi="http://sodipodi.sourceforge.net/DTD/sodipodi-0.dtd"
   xmlns="http://www.w3.org/2000/svg"
   xmlns:svg="http://www.w3.org/2000/svg">
  <defs
     id="defs6">
    <clipPath
       clipPathUnits="userSpaceOnUse"
       id="clipPath18">
      <path
         d="M 0,136.863 H 175.347 V 0 H 0 Z"
         id="path16" />
    </clipPath>
  </defs>
  <sodipodi:namedview
     id="namedview4"
     pagecolor="#ffffff"
     bordercolor="#000000"
     borderopacity="0.25"
     inkscape:showpageshadow="2"
     inkscape:pageopacity="0.0"
     inkscape:pagecheckerboard="0"
     inkscape:deskcolor="#d1d1d1"
     showgrid="false"
     inkscape:zoom="7.9590394"
     inkscape:cx="89.458031"
     inkscape:cy="98.944101"
     inkscape:window-width="3840"
     inkscape:window-height="2054"
     inkscape:window-x="-11"
     inkscape:window-y="-11"
     inkscape:window-maximized="1"
     inkscape:current-layer="g10">
    <inkscape:page
       x="0"
       y="0"
       id="page8"
       width="233.79601"
       height="182.48399" />
  </sodipodi:namedview>
  <g
     id="g10"
     inkscape:groupmode="layer"
     inkscape:label="Page 1"
     transform="matrix(1.3333333,0,0,-1.3333333,0,182.484)">
    <g
       id="g12"
       style="fill:#14a2a9;fill-opacity:1">
      <g
         id="g14"
         clip-path="url(#clipPath18)"
         style="fill:#14a2a9;fill-opacity:1">
        <g
           id="g20"
           transform="translate(44.3799,33.7673)"
           style="fill:#14a2a9;fill-opacity:1">
          <path
             d="M 0,0 -0.507,2.102 C -0.545,2.243 -0.595,2.465 -0.658,2.766 -0.72,3.068 -0.762,3.289 -0.783,3.429 -0.915,3.018 -1.094,2.572 -1.318,2.091 l -0.86,-1.884 z m 0.771,-3.231 -0.548,2.147 -2.86,0.272 -0.928,-2.007 -1.289,0.122 3.511,7.241 1.33,-0.126 2.083,-7.773 z"
             style="fill:#14a2a9;fill-opacity:1;fill-rule:nonzero;stroke:none"
             id="path22" />
        </g>
        <g
           id="g24"
           transform="translate(52.6318,29.9285)"
           style="fill:#14a2a9;fill-opacity:1">
          <path
             d="M 0,0 0.513,7.493 1.738,7.409 1.297,0.967 4.469,0.75 4.397,-0.301 Z"
             style="fill:#14a2a9;fill-opacity:1;fill-rule:nonzero;stroke:none"
             id="path26" />
        </g>
        <g
           id="g28"
           transform="translate(63.5396,29.2727)"
           style="fill:#14a2a9;fill-opacity:1">
          <path
             d="M 0,0 0.326,7.503 1.552,7.45 1.272,0.999 4.449,0.861 4.403,-0.191 Z"
             style="fill:#14a2a9;fill-opacity:1;fill-rule:nonzero;stroke:none"
             id="path30" />
        </g>
        <g
           id="g32"
           transform="translate(74.4473,28.8923)"
           style="fill:#14a2a9;fill-opacity:1">
          <path
             d="M 0,0 0.16,7.509 1.388,7.482 1.228,-0.026 Z"
             style="fill:#14a2a9;fill-opacity:1;fill-rule:nonzero;stroke:none"
             id="path34" />
        </g>
        <g
           id="g36"
           transform="translate(86.5894,31.9416)"
           style="fill:#14a2a9;fill-opacity:1">
          <path
             d="M 0,0 -0.737,2.033 C -0.791,2.169 -0.865,2.384 -0.96,2.676 -1.056,2.97 -1.122,3.185 -1.158,3.321 -1.244,2.898 -1.372,2.436 -1.542,1.933 l -0.646,-1.969 z m 1.125,-3.126 -0.784,2.073 -2.871,-0.046 -0.701,-2.098 -1.294,-0.021 2.687,7.586 1.335,0.022 2.932,-7.495 z"
             style="fill:#14a2a9;fill-opacity:1;fill-rule:nonzero;stroke:none"
             id="path38" />
        </g>
        <g
           id="g40"
           transform="translate(101.5063,29.0969)"
           style="fill:#14a2a9;fill-opacity:1">
          <path
             d="M 0,0 -1.504,-0.047 -5.385,5.818 -5.426,5.816 -5.39,5.483 C -5.321,4.848 -5.279,4.267 -5.263,3.74 l 0.124,-3.902 -1.114,-0.035 -0.238,7.506 1.49,0.047 3.869,-5.835 0.03,0.001 c -0.009,0.079 -0.031,0.365 -0.067,0.859 -0.037,0.494 -0.059,0.88 -0.068,1.157 l -0.124,3.933 1.124,0.036 z"
             style="fill:#14a2a9;fill-opacity:1;fill-rule:nonzero;stroke:none"
             id="path42" />
        </g>
        <g
           id="g44"
           transform="translate(111.4819,36.1853)"
           style="fill:#14a2a9;fill-opacity:1">
          <path
             d="m 0,0 c -0.704,-0.042 -1.243,-0.326 -1.616,-0.849 -0.373,-0.524 -0.533,-1.225 -0.48,-2.104 0.056,-0.919 0.292,-1.603 0.709,-2.051 0.416,-0.448 0.991,-0.65 1.727,-0.606 0.318,0.02 0.624,0.07 0.917,0.151 0.294,0.082 0.598,0.181 0.913,0.3 L 2.234,-6.21 C 1.66,-6.468 1,-6.62 0.254,-6.665 c -1.097,-0.066 -1.96,0.215 -2.588,0.845 -0.628,0.629 -0.979,1.562 -1.054,2.8 -0.048,0.779 0.054,1.47 0.304,2.071 0.25,0.602 0.636,1.075 1.157,1.419 0.521,0.343 1.146,0.538 1.874,0.582 C 0.713,1.098 1.43,0.98 2.099,0.698 L 1.72,-0.349 C 1.459,-0.245 1.186,-0.156 0.898,-0.082 0.61,-0.008 0.311,0.019 0,0"
             style="fill:#14a2a9;fill-opacity:1;fill-rule:nonzero;stroke:none"
             id="path46" />
        </g>
        <g
           id="g48"
           transform="translate(124.7822,30.6257)"
           style="fill:#14a2a9;fill-opacity:1">
          <path
             d="m 0,0 -4.232,-0.369 -0.651,7.483 4.232,0.368 0.09,-1.034 -3.009,-0.262 0.177,-2.037 2.82,0.246 0.089,-1.024 -2.82,-0.245 0.205,-2.349 3.009,0.262 z"
             style="fill:#14a2a9;fill-opacity:1;fill-rule:nonzero;stroke:none"
             id="path50" />
        </g>
        <g
           id="g52"
           transform="translate(59.0444,62.6926)"
           style="fill:#14a2a9;fill-opacity:1">
          <path
             d="m 0,0 c -0.599,0 -1.066,-0.246 -1.401,-0.736 -0.336,-0.491 -0.504,-1.167 -0.504,-2.03 0,-1.792 0.682,-2.688 2.045,-2.688 0.412,0 0.811,0.057 1.198,0.172 0.386,0.115 0.775,0.253 1.166,0.414 V -6.997 C 1.727,-7.34 0.847,-7.512 -0.134,-7.512 c -1.406,0 -2.483,0.408 -3.234,1.223 -0.749,0.816 -1.124,1.994 -1.124,3.537 0,0.963 0.181,1.811 0.545,2.542 0.363,0.731 0.885,1.292 1.567,1.685 0.682,0.392 1.484,0.589 2.405,0.589 1.007,0 1.969,-0.218 2.887,-0.656 L 2.141,-0.574 C 1.797,-0.412 1.453,-0.276 1.109,-0.167 0.765,-0.055 0.395,0 0,0"
             style="fill:#14a2a9;fill-opacity:1;fill-rule:nonzero;stroke:none"
             id="path54" />
        </g>
        <g
           id="g56"
           transform="translate(68.0977,59.1179)"
           style="fill:#14a2a9;fill-opacity:1">
          <path
             d="m 0,0 -0.401,1.529 c -0.094,0.34 -0.207,0.78 -0.341,1.319 -0.133,0.539 -0.222,0.926 -0.264,1.16 C -1.045,3.791 -1.12,3.434 -1.232,2.938 -1.345,2.44 -1.595,1.461 -1.981,0 Z M 0.981,-3.81 0.522,-2.064 H -2.503 L -2.975,-3.81 H -5.74 l 3.039,9.353 H 0.657 L 3.734,-3.81 Z"
             style="fill:#14a2a9;fill-opacity:1;fill-rule:nonzero;stroke:none"
             id="path58" />
        </g>
        <g
           id="g60"
           transform="translate(78.9292,58.1369)"
           style="fill:#14a2a9;fill-opacity:1">
          <path
             d="m 0,0 c 0,-0.578 -0.146,-1.091 -0.439,-1.539 -0.293,-0.448 -0.716,-0.796 -1.269,-1.045 -0.551,-0.248 -1.2,-0.373 -1.942,-0.373 -0.621,0 -1.142,0.044 -1.562,0.131 -0.42,0.087 -0.857,0.239 -1.312,0.456 v 2.243 c 0.48,-0.247 0.979,-0.439 1.497,-0.577 0.518,-0.138 0.994,-0.208 1.427,-0.208 0.374,0 0.648,0.066 0.822,0.195 0.174,0.13 0.261,0.297 0.261,0.5 0,0.128 -0.035,0.239 -0.105,0.335 -0.07,0.095 -0.182,0.192 -0.337,0.29 -0.156,0.097 -0.568,0.297 -1.239,0.598 -0.608,0.276 -1.063,0.544 -1.367,0.804 -0.304,0.259 -0.529,0.556 -0.676,0.891 -0.146,0.336 -0.219,0.734 -0.219,1.192 0,0.857 0.312,1.527 0.937,2.007 0.624,0.479 1.481,0.72 2.573,0.72 0.964,0 1.948,-0.224 2.95,-0.669 L -0.771,4.007 c -0.871,0.4 -1.623,0.6 -2.255,0.6 -0.328,0 -0.565,-0.058 -0.714,-0.172 -0.149,-0.115 -0.223,-0.258 -0.223,-0.428 0,-0.182 0.094,-0.345 0.283,-0.49 0.19,-0.145 0.702,-0.408 1.539,-0.79 C -1.338,2.366 -0.78,1.978 -0.469,1.564 -0.156,1.15 0,0.629 0,0"
             style="fill:#14a2a9;fill-opacity:1;fill-rule:nonzero;stroke:none"
             id="path62" />
        </g>
        <g
           id="g64"
           transform="translate(84.5171,62.6926)"
           style="fill:#14a2a9;fill-opacity:1">
          <path
             d="m 0,0 c -0.599,0 -1.066,-0.246 -1.401,-0.736 -0.336,-0.491 -0.504,-1.167 -0.504,-2.03 0,-1.792 0.682,-2.688 2.045,-2.688 0.412,0 0.811,0.057 1.198,0.172 0.386,0.115 0.775,0.253 1.165,0.414 V -6.997 C 1.727,-7.34 0.847,-7.512 -0.134,-7.512 c -1.406,0 -2.483,0.408 -3.234,1.223 -0.749,0.816 -1.124,1.994 -1.124,3.537 0,0.963 0.181,1.811 0.545,2.542 0.363,0.731 0.885,1.292 1.567,1.685 0.682,0.392 1.484,0.589 2.405,0.589 1.007,0 1.969,-0.218 2.887,-0.656 L 2.141,-0.574 C 1.797,-0.412 1.453,-0.276 1.109,-0.167 0.765,-0.055 0.395,0 0,0"
             style="fill:#14a2a9;fill-opacity:1;fill-rule:nonzero;stroke:none"
             id="path66" />
        </g>
        <g
           id="g68"
           transform="translate(93.5703,59.1179)"
           style="fill:#14a2a9;fill-opacity:1">
          <path
             d="m 0,0 -0.401,1.529 c -0.094,0.34 -0.207,0.78 -0.341,1.319 -0.133,0.539 -0.222,0.926 -0.264,1.16 C -1.045,3.791 -1.12,3.434 -1.232,2.938 -1.345,2.44 -1.595,1.461 -1.981,0 Z M 0.981,-3.81 0.522,-2.064 H -2.503 L -2.975,-3.81 H -5.74 l 3.039,9.353 H 0.657 L 3.734,-3.81 Z"
             style="fill:#14a2a9;fill-opacity:1;fill-rule:nonzero;stroke:none"
             id="path70" />
        </g>
        <g
           id="g72"
           transform="translate(103.6055,60.074)"
           style="fill:#14a2a9;fill-opacity:1">
          <path
             d="m 0,0 c 0,0.854 -0.169,1.486 -0.506,1.898 -0.339,0.413 -0.851,0.619 -1.539,0.619 h -0.733 v -5.219 h 0.561 c 0.764,0 1.325,0.222 1.682,0.666 C -0.178,-1.592 0,-0.913 0,0 m 2.612,0.089 c 0,-1.555 -0.427,-2.753 -1.283,-3.593 -0.856,-0.842 -2.059,-1.262 -3.61,-1.262 h -3.014 v 9.315 h 3.224 c 1.495,0 2.65,-0.382 3.463,-1.147 0.814,-0.764 1.22,-1.869 1.22,-3.313"
             style="fill:#14a2a9;fill-opacity:1;fill-rule:nonzero;stroke:none"
             id="path74" />
        </g>
        <g
           id="g76"
           transform="translate(113.4175,55.3078)"
           style="fill:#14a2a9;fill-opacity:1">
          <path
             d="M 0,0 H -5.53 V 9.315 H 0 V 7.295 H -3.014 V 5.83 h 2.791 V 3.81 H -3.014 V 2.052 H 0 Z"
             style="fill:#14a2a9;fill-opacity:1;fill-rule:nonzero;stroke:none"
             id="path78" />
        </g>
        <g
           id="g80"
           transform="translate(37.2256,45.7595)"
           style="fill:#14a2a9;fill-opacity:1">
          <path
             d="m 0,0 v -1.957 h 0.886 c 0.785,0 1.178,0.332 1.178,0.995 0,0.31 -0.105,0.548 -0.314,0.713 C 1.539,-0.083 1.233,0 0.835,0 Z m 0,1.841 h 0.758 c 0.361,0 0.64,0.075 0.838,0.223 0.197,0.149 0.297,0.37 0.297,0.663 0,0.523 -0.395,0.784 -1.185,0.784 H 0 Z m -2.517,3.575 h 3.25 C 1.998,5.416 2.938,5.228 3.552,4.852 4.166,4.476 4.473,3.891 4.473,3.097 4.473,2.574 4.339,2.128 4.071,1.759 3.804,1.389 3.451,1.151 3.014,1.045 V 0.981 C 3.591,0.828 4.01,0.574 4.269,0.217 4.528,-0.14 4.658,-0.604 4.658,-1.172 4.658,-2.018 4.34,-2.684 3.705,-3.17 3.07,-3.656 2.204,-3.899 1.108,-3.899 h -3.625 z"
             style="fill:#14a2a9;fill-opacity:1;fill-rule:nonzero;stroke:none"
             id="path82" />
        </g>
        <g
           id="g84"
           transform="translate(48.2349,45.6702)"
           style="fill:#14a2a9;fill-opacity:1">
          <path
             d="m 0,0 -0.401,1.529 c -0.094,0.34 -0.207,0.78 -0.341,1.319 -0.133,0.54 -0.222,0.926 -0.264,1.16 C -1.045,3.791 -1.12,3.434 -1.232,2.938 -1.345,2.44 -1.595,1.461 -1.981,0 Z M 0.981,-3.81 0.522,-2.064 H -2.503 L -2.975,-3.81 H -5.74 l 3.039,9.353 H 0.657 L 3.734,-3.81 Z"
             style="fill:#14a2a9;fill-opacity:1;fill-rule:nonzero;stroke:none"
             id="path86" />
        </g>
        <g
           id="g88"
           transform="translate(57.1235,49.2449)"
           style="fill:#14a2a9;fill-opacity:1">
          <path
             d="m 0,0 c -0.599,0 -1.067,-0.246 -1.402,-0.736 -0.336,-0.491 -0.503,-1.167 -0.503,-2.03 0,-1.792 0.681,-2.688 2.045,-2.688 0.412,0 0.811,0.058 1.198,0.172 0.386,0.115 0.775,0.253 1.165,0.414 v -2.128 c -0.777,-0.343 -1.656,-0.516 -2.637,-0.516 -1.406,0 -2.484,0.408 -3.234,1.223 -0.75,0.816 -1.124,1.994 -1.124,3.537 0,0.964 0.181,1.811 0.545,2.542 0.363,0.731 0.885,1.292 1.567,1.685 0.681,0.392 1.484,0.589 2.405,0.589 1.007,0 1.969,-0.218 2.886,-0.656 L 2.141,-0.574 C 1.796,-0.412 1.453,-0.276 1.108,-0.166 0.765,-0.055 0.395,0 0,0"
             style="fill:#14a2a9;fill-opacity:1;fill-rule:nonzero;stroke:none"
             id="path90" />
        </g>
        <g
           id="g92"
           transform="translate(69.4004,41.8601)"
           style="fill:#14a2a9;fill-opacity:1">
          <path
             d="M 0,0 H -2.841 L -4.682,3.562 -5.428,3.115 V 0 h -2.529 v 9.315 h 2.529 V 5.27 c 0.127,0.25 0.385,0.647 0.771,1.191 l 1.956,2.854 H 0.051 L -2.886,5.142 Z"
             style="fill:#14a2a9;fill-opacity:1;fill-rule:nonzero;stroke:none"
             id="path94" />
        </g>
        <g
           id="g96"
           transform="translate(74.5552,49.2449)"
           style="fill:#14a2a9;fill-opacity:1">
          <path
             d="m 0,0 c -0.599,0 -1.066,-0.246 -1.401,-0.736 -0.336,-0.491 -0.504,-1.167 -0.504,-2.03 0,-1.792 0.682,-2.688 2.046,-2.688 0.411,0 0.811,0.058 1.197,0.172 0.386,0.115 0.775,0.253 1.166,0.414 v -2.128 c -0.777,-0.343 -1.657,-0.516 -2.638,-0.516 -1.406,0 -2.483,0.408 -3.234,1.223 -0.749,0.816 -1.124,1.994 -1.124,3.537 0,0.964 0.181,1.811 0.545,2.542 0.363,0.731 0.885,1.292 1.567,1.685 0.682,0.392 1.484,0.589 2.406,0.589 1.006,0 1.968,-0.218 2.886,-0.656 L 2.141,-0.574 C 1.797,-0.412 1.453,-0.276 1.109,-0.166 0.765,-0.055 0.395,0 0,0"
             style="fill:#14a2a9;fill-opacity:1;fill-rule:nonzero;stroke:none"
             id="path98" />
        </g>
        <g
           id="g100"
           transform="translate(81.1816,46.53)"
           style="fill:#14a2a9;fill-opacity:1">
          <path
             d="m 0,0 c 0,-1.8 0.626,-2.701 1.879,-2.701 0.637,0 1.11,0.219 1.418,0.656 C 3.604,-1.607 3.759,-0.926 3.759,0 3.759,0.931 3.603,1.618 3.291,2.062 2.979,2.505 2.513,2.727 1.892,2.727 0.63,2.727 0,1.818 0,0 m 6.41,0 c 0,-1.566 -0.385,-2.758 -1.154,-3.574 -0.768,-0.815 -1.894,-1.223 -3.377,-1.223 -1.461,0 -2.582,0.41 -3.36,1.229 -0.78,0.82 -1.169,2.013 -1.169,3.582 0,1.549 0.387,2.733 1.162,3.551 0.775,0.818 1.902,1.227 3.38,1.227 1.483,0 2.606,-0.406 3.371,-1.217 C 6.027,2.764 6.41,1.572 6.41,0"
             style="fill:#14a2a9;fill-opacity:1;fill-rule:nonzero;stroke:none"
             id="path102" />
        </g>
        <g
           id="g104"
           transform="translate(97.1924,51.175)"
           style="fill:#14a2a9;fill-opacity:1">
          <path
             d="m 0,0 v -5.606 c 0,-1.219 -0.345,-2.164 -1.035,-2.832 -0.691,-0.67 -1.685,-1.004 -2.985,-1.004 -1.271,0 -2.246,0.325 -2.928,0.974 -0.681,0.651 -1.022,1.585 -1.022,2.803 V 0 h 2.529 v -5.466 c 0,-0.659 0.124,-1.137 0.369,-1.433 0.247,-0.298 0.61,-0.447 1.09,-0.447 0.514,0 0.887,0.147 1.119,0.443 0.231,0.295 0.347,0.778 0.347,1.449 l 0,5.454 z"
             style="fill:#14a2a9;fill-opacity:1;fill-rule:nonzero;stroke:none"
             id="path106" />
        </g>
        <g
           id="g108"
           transform="translate(108.0176,41.8601)"
           style="fill:#14a2a9;fill-opacity:1">
          <path
             d="M 0,0 H -3.3 L -6.703,6.562 H -6.76 C -6.679,5.531 -6.639,4.743 -6.639,4.199 V 0 h -2.23 v 9.315 h 3.288 l 3.389,-6.473 h 0.039 c -0.06,0.938 -0.09,1.692 -0.09,2.262 V 9.315 H 0 Z"
             style="fill:#14a2a9;fill-opacity:1;fill-rule:nonzero;stroke:none"
             id="path110" />
        </g>
        <g
           id="g112"
           transform="translate(114.1401,41.8601)"
           style="fill:#14a2a9;fill-opacity:1">
          <path
             d="M 0,0 H -2.516 V 7.257 H -4.791 V 9.315 H 2.268 V 7.257 H 0 Z"
             style="fill:#14a2a9;fill-opacity:1;fill-rule:nonzero;stroke:none"
             id="path114" />
        </g>
        <g
           id="g116"
           transform="translate(120.2568,47.1418)"
           style="fill:#14a2a9;fill-opacity:1">
          <path
             d="m 0,0 h 0.471 c 0.88,0 1.32,0.389 1.32,1.167 0,0.641 -0.432,0.962 -1.294,0.962 H 0 Z m 0,-1.892 v -3.39 h -2.517 v 9.315 h 3.052 c 2.532,0 3.798,-0.917 3.798,-2.752 0,-1.079 -0.527,-1.914 -1.581,-2.504 L 5.466,-5.282 H 2.612 l -1.975,3.39 z"
             style="fill:#14a2a9;fill-opacity:1;fill-rule:nonzero;stroke:none"
             id="path118" />
        </g>
        <g
           id="g120"
           transform="translate(129.897,47.7219)"
           style="fill:#14a2a9;fill-opacity:1">
          <path
             d="M 0,0 1.605,3.453 H 4.333 L 1.268,-2.223 V -5.862 H -1.269 V -2.3 l -3.064,5.753 h 2.74 z"
             style="fill:#14a2a9;fill-opacity:1;fill-rule:nonzero;stroke:none"
             id="path122" />
        </g>
        <g
           id="g124"
           transform="translate(133.9438,55.3601)"
           style="fill:#14a2a9;fill-opacity:1">
          <path
             d="m 0,0 -32.06,42.495 -2.056,2.9 -9.847,13.888 -9.994,-13.792 -6.134,8.651 -39.257,-54.179 h 15.95 v 1.418 2.072 h -9.11 l 32.386,44.698 2.235,-3.152 1.767,-2.493 2.132,-3.007 2.179,-3.073 16.324,-23.022 h 4.279 l -16.982,23.95 -2.056,2.9 -1.581,2.23 7.831,10.808 L -4.277,0 -4.239,-0.052 h 4.278 z"
             style="fill:#14a2a9;fill-opacity:1;fill-rule:nonzero;stroke:none"
             id="path126" />
        </g>
      </g>
    </g>
    <path
       style="fill:#14a2a9;stroke-width:0.177686;fill-opacity:1"
       d="m 46.485308,108.44474 c 0.289848,-0.46898 51.64742,-71.323707 51.837023,-71.516194 0.155403,-0.157764 1.169284,1.159494 4.202759,5.460324 2.19887,3.117536 4.04936,5.669838 4.11219,5.671782 0.0628,0.002 3.0613,-4.071763 6.66325,-9.052684 3.60194,-4.980921 6.59694,-9.058826 6.65554,-9.06201 0.0586,-0.0032 3.66448,5.011632 8.01305,11.144036 7.04464,9.934419 20.29376,27.673146 50.03343,66.987796 l 0.43684,0.57748 -2.73081,-0.007 -2.73081,-0.007 -26.46612,-35.530648 C 131.95529,53.569478 119.99453,37.580687 119.9322,37.580687 c -0.12178,0 -10.10922,13.708617 -10.36287,14.223924 -0.11941,0.242568 2.77174,4.432305 13.45975,19.505361 7.48649,10.55804 13.61181,19.242006 13.61181,19.297702 0,0.0557 -1.19068,0.101265 -2.64596,0.101265 h -2.64595 L 114.93806,67.531487 c -9.026,-12.747598 -16.450896,-23.178949 -16.49976,-23.18078 -0.133057,-0.005 -43.079758,59.339303 -43.146417,59.620263 -0.04764,0.20078 0.97661,0.24214 5.996918,0.24214 h 6.054368 v 2.22108 2.22108 H 56.849182 c -8.042152,0 -10.463588,-0.0492 -10.363874,-0.21053 z"
       id="path301"
       transform="matrix(0.75000002,0,0,-0.75000002,0,136.863)" />
    <path
       style="fill:#14a2a9;stroke-width:0.177686;fill-opacity:1"
       d="m 50.455613,108.48283 -3.827602,-0.0941 3.018313,-4.17563 C 55.089176,96.683293 85.610386,54.567239 92.04166,45.712016 l 6.289518,-8.660043 0.399779,0.375573 c 0.219878,0.206564 2.054393,2.684313 4.076693,5.506107 2.02231,2.821794 3.74092,5.130535 3.81914,5.130535 0.16556,0 1.40668,-1.662475 7.76976,-10.407585 2.56507,-3.525302 4.88131,-6.666295 5.14721,-6.979984 l 0.48345,-0.570345 4.34489,6.091552 c 10.86426,15.231719 17.21355,23.777604 46.1616,62.131611 4.23294,5.608323 7.66409,10.229103 7.6248,10.268403 -0.0393,0.0393 -1.23171,0.0166 -2.64979,-0.0504 l -2.57833,-0.12183 -5.77234,-7.74781 C 127.43045,47.354172 120.11525,37.580687 119.93147,37.580687 c -0.14657,0 -3.81886,4.934345 -8.22765,11.05525 -2.07976,2.887412 -2.2498,3.181794 -2.05279,3.553729 0.59275,1.119054 3.34077,5.066799 15.6195,22.438648 4.55899,6.450019 8.93543,12.646834 9.72542,13.770701 l 1.43636,2.043394 -1.18394,0.111195 c -0.65116,0.06116 -1.78363,0.116505 -2.51658,0.122998 l -1.33265,0.0118 -6.21903,-8.815778 C 119.5306,73.864161 102.15975,49.362719 99.604677,45.798686 c -0.578007,-0.806253 -1.09981,-1.465914 -1.159564,-1.465914 -0.05975,0 -0.406458,0.398912 -0.770454,0.88647 -2.308224,3.091772 -33.861498,46.679358 -40.160822,55.478018 -1.239341,1.73107 -2.253347,3.2303 -2.253347,3.33162 0,0.12357 1.98921,0.18423 6.04134,0.18423 h 6.041339 v 2.22108 2.22108 l -6.529977,-0.0392 c -3.591488,-0.0216 -8.252398,-0.0815 -10.357579,-0.13326 z"
       id="path303"
       transform="matrix(0.75000002,0,0,-0.75000002,0,136.863)" />
  </g>
</svg>
