<svg xmlns="http://www.w3.org/2000/svg" xmlns:xlink="http://www.w3.org/1999/xlink" width="1262" height="709" viewBox="0 0 1262 709"><defs><style>.cls-1{fill:none;}.cls-2{fill:#121212;}.cls-3{clip-path:url(#clip-path);}.cls-4{fill:#fff;}</style><clipPath id="clip-path" transform="translate(-329 -427)"><rect class="cls-1" x="646" y="715.77" width="628.01" height="131.47"/></clipPath></defs><title>Asset 15</title><g id="Layer_2" data-name="Layer 2"><g id="Content"><rect class="cls-2" width="1262" height="709"/><g id="Logo-White-Vector"><g class="cls-3"><polygon class="cls-4" points="422.19 387.37 422.19 420.23 474.79 387.37 474.79 354.5 422.19 387.37"/><polygon class="cls-4" points="369.59 387.37 369.59 420.23 422.19 387.37 422.19 354.5 369.59 387.37"/><polygon class="cls-4" points="317 387.37 317 420.23 369.59 387.37 369.59 354.5 317 387.37"/><polygon class="cls-4" points="474.79 288.77 422.19 321.63 422.19 354.5 474.79 321.63 474.79 288.77 474.79 288.77"/><polygon class="cls-4" points="422.19 288.77 369.6 321.63 369.6 354.5 422.19 321.63 422.19 288.77 422.19 288.77"/><polygon class="cls-4" points="369.59 288.77 317 321.63 317 354.5 369.59 321.63 369.59 288.77 369.59 288.77"/><g class="cls-3"><path class="cls-4" d="M913.08,783.48v31.14H899.63V784.51c0-6.1-2.89-9.1-8.48-9.1q-6.21,0-10.86,5.27v33.94H866.84V784.51c0-6.1-2.8-9.1-8.38-9.1-4.24,0-7.87,1.86-11,5.59v33.62H833.94V765h12.62v4.65A24.22,24.22,0,0,1,862.39,764c6.83,0,11.79,2.27,14.69,6.83a27.52,27.52,0,0,1,18-6.83c11.69,0,18,6.83,18,19.45" transform="translate(-329 -427)"/><path class="cls-4" d="M972.21,776.24A27.2,27.2,0,0,1,968,808.62a25.32,25.32,0,0,1-17.38,7.14,19.07,19.07,0,0,1-12.83-4.56v26.59H924.21V765h13.13v3.83A20.41,20.41,0,0,1,950.59,764a24.8,24.8,0,0,1,21.62,12.21m-10,13.44c0-8.79-6.2-14.27-13.24-14.27a14.84,14.84,0,0,0-11.38,5.07v18.93a14.37,14.37,0,0,0,10.86,4.86c7.66,0,13.76-5.48,13.76-14.59" transform="translate(-329 -427)"/><path class="cls-4" d="M1032.64,814.62h-12.71l0-4.24a18.81,18.81,0,0,1-13.66,5.38,24.48,24.48,0,0,1-21.51-12.42,25.33,25.33,0,0,1-3.52-13.45c0-10,5.17-18.41,12.83-22.66a24.62,24.62,0,0,1,12.31-3.2,18.85,18.85,0,0,1,13.45,5.17V765h12.83Zm-13.35-15.11V780.27a14.65,14.65,0,0,0-11.07-4.86c-7.24,0-13.45,5.59-13.45,14.48s6.11,14.38,13.35,14.38a14.32,14.32,0,0,0,11.17-4.76" transform="translate(-329 -427)"/><path class="cls-4" d="M1056.85,765v4.55c4-4,8.48-5.48,16.13-5.48v12.83a12.7,12.7,0,0,0-3.72-.42,15.28,15.28,0,0,0-11.48,5.69v32.49h-13.56V765Z" transform="translate(-329 -427)"/><polygon class="cls-4" points="784.83 337.96 784.83 349.13 773.66 349.13 773.66 387.62 760.21 387.62 760.21 349.13 749.76 349.13 749.76 337.96 760.21 337.96 760.21 321.41 773.66 321.41 773.66 337.96 784.83 337.96"/><path class="cls-4" d="M1121.45,744.68h14.18v13.66h-14.18ZM1135.32,765h-13.55v49.66h13.55Z" transform="translate(-329 -427)"/><path class="cls-4" d="M1192.29,804.58a26.53,26.53,0,0,1-22,11.07c-9.72,0-18.31-4.55-23.07-12.41a26,26,0,0,1,9.63-35.9,27.73,27.73,0,0,1,13.34-3.31c9.83,0,17.17,3.72,22,11.27l-10.35,6.42a13.44,13.44,0,0,0-11.59-6.21c-7.86,0-13.13,6.1-13.13,14.59s5.07,14.07,13,14.07a14.7,14.7,0,0,0,12.21-6.1Z" transform="translate(-329 -427)"/><rect class="cls-4" x="872.18" y="313.23" width="13.45" height="74.39"/><path class="cls-4" d="M1261.18,798.33a15.63,15.63,0,0,1-12.42,5.72c-7,0-12-3.83-13-11.07h38.18a15.06,15.06,0,0,0,.1-2.07c0-16.45-10.24-27-25.24-27a26.47,26.47,0,0,0-13.76,3.52c-8.07,4.65-12.52,12.83-12.52,22.45a25.92,25.92,0,0,0,7.14,18.1c4.45,4.66,11.38,7.56,19.14,7.56,9.11,0,17-3.94,21.93-11h0ZM1249.07,775c6.31,0,10.24,3,11.9,9.11h-24.73c1.86-5.9,6.31-9.11,12.83-9.11" transform="translate(-329 -427)"/></g></g></g></g></g></svg>