<?xml version="1.0" encoding="UTF-8" standalone="no"?>
<!-- Created with Inkscape (http://www.inkscape.org/) -->

<svg
   xmlns:dc="http://purl.org/dc/elements/1.1/"
   xmlns:cc="http://creativecommons.org/ns#"
   xmlns:rdf="http://www.w3.org/1999/02/22-rdf-syntax-ns#"
   xmlns:svg="http://www.w3.org/2000/svg"
   xmlns="http://www.w3.org/2000/svg"
   xmlns:sodipodi="http://sodipodi.sourceforge.net/DTD/sodipodi-0.dtd"
   xmlns:inkscape="http://www.inkscape.org/namespaces/inkscape"
   width="1402.8387"
   height="1011.8062"
   id="svg2"
   version="1.1"
   inkscape:version="0.92.2 (5c3e80d, 2017-08-06)"
   sodipodi:docname="NOC-logo.svg"
   inkscape:export-filename="F:\Night Owl Cycling\Logos\StickerLogo.png"
   inkscape:export-xdpi="300.01001"
   inkscape:export-ydpi="300.01001">
  <defs
     id="defs4">
    <clipPath
       id="clipPath3135"
       clipPathUnits="userSpaceOnUse">
      <path
         id="path3137"
         d="M 0,585.333 H 779 V 0 H 0 Z"
         inkscape:connector-curvature="0" />
    </clipPath>
  </defs>
  <sodipodi:namedview
     id="base"
     pagecolor="#ffffff"
     bordercolor="#666666"
     borderopacity="1.0"
     inkscape:pageopacity="0.0"
     inkscape:pageshadow="2"
     inkscape:zoom="1.2403374"
     inkscape:cx="552.0118"
     inkscape:cy="643.69219"
     inkscape:document-units="px"
     inkscape:current-layer="layer1"
     showgrid="false"
     inkscape:window-width="3840"
     inkscape:window-height="2050"
     inkscape:window-x="2340"
     inkscape:window-y="-12"
     inkscape:window-maximized="1" />
  <metadata
     id="metadata7">
    <rdf:RDF>
      <cc:Work
         rdf:about="">
        <dc:format>image/svg+xml</dc:format>
        <dc:type
           rdf:resource="http://purl.org/dc/dcmitype/StillImage" />
        <dc:title></dc:title>
      </cc:Work>
    </rdf:RDF>
  </metadata>
  <g
     inkscape:label="Layer 1"
     inkscape:groupmode="layer"
     id="layer1"
     transform="translate(400.36449,-462.83769)">
    <g
       id="g3125"
       transform="matrix(2.3266482,0,0,-2.2342777,-376.02607,1353.9412)"
       style="fill:#000000;fill-opacity:1"
       inkscape:export-xdpi="300.01001"
       inkscape:export-ydpi="300.01001">
      <path
         inkscape:connector-curvature="0"
         d="M 0,0 V -53.182933 H -10.385067 V 20.245333 H 4.0906667 l 11.8538663,-43.952 v 43.952 H 26.225067 V -53.182933 H 14.3712 Z"
         style="fill:#000000;fill-opacity:1;fill-rule:nonzero;stroke:none;stroke-width:1.06666672"
         id="path3127" />
    </g>
    <path
       inkscape:connector-curvature="0"
       d="m -295.73921,1308.7057 h 26.84767 v 164.0616 h -26.84767 z"
       style="fill:#000000;fill-opacity:1;fill-rule:nonzero;stroke:none;stroke-width:1.9960953"
       id="path3129"
       inkscape:export-xdpi="300.01001"
       inkscape:export-ydpi="300.01001" />
    <g
       id="g3139"
       transform="matrix(2.3266482,0,0,-2.2342777,-209.10228,1381.3619)"
       style="fill:#000000;fill-opacity:1"
       inkscape:export-xdpi="300.01001"
       inkscape:export-ydpi="300.01001">
      <path
         inkscape:connector-curvature="0"
         d="m 0,0 h 16.154667 v -23.287467 c 0,-11.749333 -5.874134,-18.462933 -17.2032003,-18.462933 -11.3290667,0 -17.2031997,6.7136 -17.2031997,18.462933 V 14.896 c 0,11.748267 5.874133,18.461867 17.2031997,18.461867 11.3290663,0 17.2032003,-6.7136 17.2032003,-18.461867 V 7.7621333 H 5.2448 v 7.8677337 c 0,5.2448 -2.3072,7.2384 -5.97866667,7.2384 -3.67146663,0 -5.97973333,-1.9936 -5.97973333,-7.2384 V -24.0224 c 0,-5.243733 2.3082667,-7.1328 5.97973333,-7.1328 3.67146667,0 5.97866667,1.889067 5.97866667,7.1328 v 13.5328 H 0 Z"
         style="fill:#000000;fill-opacity:1;fill-rule:nonzero;stroke:none;stroke-width:1.06666672"
         id="path3141" />
    </g>
    <g
       id="g3143"
       transform="matrix(2.3266482,0,0,-2.2342777,-127.34599,1472.7672)"
       style="fill:#000000;fill-opacity:1"
       inkscape:export-xdpi="300.01001"
       inkscape:export-ydpi="300.01001">
      <path
         inkscape:connector-curvature="0"
         d="M 0,0 H -11.5392 V 73.429333 H 0 V 41.959467 H 13.112533 V 73.429333 H 24.8608 V 0 H 13.112533 V 31.469867 H 0 Z"
         style="fill:#000000;fill-opacity:1;fill-rule:nonzero;stroke:none;stroke-width:1.06666672"
         id="path3145" />
    </g>
    <g
       id="g3147"
       transform="matrix(2.3266482,0,0,-2.2342777,-57.798689,1308.706)"
       style="fill:#000000;fill-opacity:1"
       inkscape:export-xdpi="300.01001"
       inkscape:export-ydpi="300.01001">
      <path
         inkscape:connector-curvature="0"
         d="m 0,0 h 35.666133 v -10.4896 h -12.064 V -73.429333 H 12.064 V -10.4896 H 0 Z"
         style="fill:#000000;fill-opacity:1;fill-rule:nonzero;stroke:none;stroke-width:1.06666672"
         id="path3149" />
    </g>
    <g
       id="g3151"
       transform="matrix(2.3266482,0,0,-2.2342777,91.321227,1435.0335)"
       style="fill:#186e85;fill-opacity:1"
       inkscape:export-xdpi="300.01001"
       inkscape:export-ydpi="300.01001">
      <path
         inkscape:connector-curvature="0"
         d="M 0,0 C 0,-5.2448 2.3082667,-7.2373333 5.9786667,-7.2373333 9.6512,-7.2373333 11.9584,-5.2448 11.9584,0 v 39.652267 c 0,5.2448 -2.3072,7.2384 -5.9797333,7.2384 C 2.3082667,46.890667 0,44.897067 0,39.652267 Z m -11.538133,38.917333 c 0,11.749334 6.1887997,18.462934 17.5167997,18.462934 11.3301333,0 17.5189333,-6.7136 17.5189333,-18.462934 V 0.73386667 C 23.4976,-11.0144 17.3088,-17.728 5.9786667,-17.728 c -11.328,0 -17.5167997,6.7136 -17.5167997,18.46186667 z"
         style="fill:#186e85;fill-opacity:1;fill-rule:nonzero;stroke:none;stroke-width:1.06666672"
         id="path3153" />
    </g>
    <g
       id="g3155"
       transform="matrix(2.3266482,0,0,-2.2342777,222.8641,1385.3465)"
       style="fill:#186e85;fill-opacity:1"
       inkscape:export-xdpi="300.01001"
       inkscape:export-ydpi="300.01001">
      <path
         inkscape:connector-curvature="0"
         d="M 0,0 -4.1962667,-39.127467 H -20.0352 l -8.1824,73.429334 h 11.224533 l 6.1888,-57.904 5.559467,57.904 H 5.8741333 L 11.643733,-24.0224 17.623467,34.301867 h 10.0704 l -8.1824,-73.429334 H 4.1962667 Z"
         style="fill:#186e85;fill-opacity:1;fill-rule:nonzero;stroke:none;stroke-width:1.06666672"
         id="path3157" />
    </g>
    <g
       id="g3159"
       transform="matrix(2.3266482,0,0,-2.2342777,300.7099,1308.706)"
       style="fill:#186e85;fill-opacity:1"
       inkscape:export-xdpi="300.01001"
       inkscape:export-ydpi="300.01001">
      <path
         inkscape:connector-curvature="0"
         d="m 0,0 h 11.5392 v -62.939733 h 18.986667 v -10.4896 H 0 Z"
         style="fill:#186e85;fill-opacity:1;fill-rule:nonzero;stroke:none;stroke-width:1.06666672"
         id="path3161" />
    </g>
    <g
       id="g3163"
       transform="matrix(2.3266482,0,0,-2.2342777,489.19521,1411.5945)"
       style="fill:#000000;fill-opacity:1"
       inkscape:export-xdpi="300.01001"
       inkscape:export-ydpi="300.01001">
      <path
         inkscape:connector-curvature="0"
         d="M 0,0 V -9.7557333 C 0,-21.505067 -5.8741333,-28.218667 -17.2032,-28.218667 c -11.329067,0 -17.2032,6.7136 -17.2032,18.4629337 V 28.426667 c 0,11.749333 5.874133,18.462933 17.2032,18.462933 C -5.8741333,46.8896 0,40.176 0,28.426667 v -7.1328 H -10.909867 V 29.1616 c 0,5.2448 -2.3072,7.2384 -5.978666,7.2384 -3.6704,0 -5.978667,-1.9936 -5.978667,-7.2384 v -39.652267 c 0,-5.2448 2.308267,-7.1328 5.978667,-7.1328 3.671466,0 5.978666,1.888 5.978666,7.1328 V 0 Z"
         style="fill:#000000;fill-opacity:1;fill-rule:nonzero;stroke:none;stroke-width:1.06666672"
         id="path3165" />
    </g>
    <g
       id="g3167"
       transform="matrix(2.3266482,0,0,-2.2342777,527.99674,1418.3928)"
       style="fill:#000000;fill-opacity:1"
       inkscape:export-xdpi="300.01001"
       inkscape:export-ydpi="300.01001">
      <path
         inkscape:connector-curvature="0"
         d="m 0,0 -14.581333,49.092267 h 12.0639997 l 8.8106666,-33.4624 8.8117337,33.4624 h 11.0144 L 11.538133,0 V -24.336 H 0 Z"
         style="fill:#000000;fill-opacity:1;fill-rule:nonzero;stroke:none;stroke-width:1.06666672"
         id="path3169" />
    </g>
    <g
       id="g3171"
       transform="matrix(2.3266482,0,0,-2.2342777,673.69581,1411.5945)"
       style="fill:#000000;fill-opacity:1"
       inkscape:export-xdpi="300.01001"
       inkscape:export-ydpi="300.01001">
      <path
         inkscape:connector-curvature="0"
         d="M 0,0 V -9.7557333 C 0,-21.505067 -5.8741333,-28.218667 -17.2032,-28.218667 c -11.329067,0 -17.2032,6.7136 -17.2032,18.4629337 V 28.426667 c 0,11.749333 5.874133,18.462933 17.2032,18.462933 C -5.8741333,46.8896 0,40.176 0,28.426667 v -7.1328 H -10.909867 V 29.1616 c 0,5.2448 -2.3072,7.2384 -5.978666,7.2384 -3.6704,0 -5.978667,-1.9936 -5.978667,-7.2384 v -39.652267 c 0,-5.2448 2.308267,-7.1328 5.978667,-7.1328 3.671466,0 5.978666,1.888 5.978666,7.1328 V 0 Z"
         style="fill:#000000;fill-opacity:1;fill-rule:nonzero;stroke:none;stroke-width:1.06666672"
         id="path3173" />
    </g>
    <g
       id="g3175"
       transform="matrix(2.3266482,0,0,-2.2342777,690.03818,1308.706)"
       style="fill:#000000;fill-opacity:1"
       inkscape:export-xdpi="300.01001"
       inkscape:export-ydpi="300.01001">
      <path
         inkscape:connector-curvature="0"
         d="m 0,0 h 11.538133 v -62.939733 h 18.987734 v -10.4896 H 0 Z"
         style="fill:#000000;fill-opacity:1;fill-rule:nonzero;stroke:none;stroke-width:1.06666672"
         id="path3177" />
    </g>
    <path
       inkscape:connector-curvature="0"
       d="m 772.76933,1308.7057 h 26.84518 v 164.0615 h -26.84518 z"
       style="fill:#000000;fill-opacity:1;fill-rule:nonzero;stroke:none;stroke-width:1.9960953"
       id="path3179"
       inkscape:export-xdpi="300.01001"
       inkscape:export-ydpi="300.01001" />
    <g
       id="g3181"
       transform="matrix(2.3266482,0,0,-2.2342777,843.05397,1353.941)"
       style="fill:#000000;fill-opacity:1"
       inkscape:export-xdpi="300.01001"
       inkscape:export-ydpi="300.01001">
      <path
         inkscape:connector-curvature="0"
         d="M 0,0 V -53.182933 H -10.385067 V 20.245333 H 4.0906667 l 11.8538663,-43.952 v 43.952 H 26.225067 V -53.182933 H 14.3712 Z"
         style="fill:#000000;fill-opacity:1;fill-rule:nonzero;stroke:none;stroke-width:1.06666672"
         id="path3183" />
    </g>
    <g
       id="g3185"
       transform="matrix(2.3266482,0,0,-2.2342777,963.61081,1381.3619)"
       style="fill:#000000;fill-opacity:1"
       inkscape:export-xdpi="300.01001"
       inkscape:export-ydpi="300.01001">
      <path
         inkscape:connector-curvature="0"
         d="m 0,0 h 16.154667 v -23.287467 c 0,-11.749333 -5.874134,-18.462933 -17.2032003,-18.462933 -11.3290667,0 -17.2031997,6.7136 -17.2031997,18.462933 V 14.896 c 0,11.748267 5.874133,18.461867 17.2031997,18.461867 11.3290663,0 17.2032003,-6.7136 17.2032003,-18.461867 V 7.7621333 H 5.2448 v 7.8677337 c 0,5.2448 -2.3072,7.2384 -5.97866667,7.2384 -3.67146663,0 -5.97973333,-1.9936 -5.97973333,-7.2384 V -24.0224 c 0,-5.243733 2.3082667,-7.1328 5.97973333,-7.1328 3.67146667,0 5.97866667,1.889067 5.97866667,7.1328 v 13.5328 H 0 Z"
         style="fill:#000000;fill-opacity:1;fill-rule:nonzero;stroke:none;stroke-width:1.06666672"
         id="path3187" />
    </g>
    <g
       id="g3189"
       transform="matrix(2.3266482,0,0,-2.2342777,-14.508389,912.81433)"
       style="fill:#186e85;fill-opacity:1"
       inkscape:export-xdpi="300.01001"
       inkscape:export-ydpi="300.01001">
      <path
         inkscape:connector-curvature="0"
         d="m 0,0 c 0,-21.607467 17.5168,-39.124267 39.124267,-39.124267 21.608533,0 39.125333,17.5168 39.125333,39.124267 0,1.6885333 -0.119467,3.3493333 -0.3264,4.9813333 C 63.818667,16.8672 48.164267,28.200533 33.124267,38.666667 14.3648,35.7792 0,19.568 0,0"
         style="fill:#186e85;fill-opacity:1;fill-rule:nonzero;stroke:none;stroke-width:1.06666672"
         id="path3191" />
    </g>
    <g
       id="g3193"
       transform="matrix(2.3266482,0,0,-2.2342777,617.21646,913.14293)"
       style="fill:#186e85;fill-opacity:1"
       inkscape:export-xdpi="300.01001"
       inkscape:export-ydpi="300.01001">
      <path
         inkscape:connector-curvature="0"
         d="m 0,0 c 0,-21.607467 -17.5168,-39.124267 -39.124267,-39.124267 -21.608533,0 -39.125333,17.5168 -39.125333,39.124267 0,1.6885333 0.119467,3.3493333 0.3264,4.9813333 C -63.818667,16.8672 -48.164267,28.200533 -33.124267,38.666667 -14.3648,35.7792 0,19.568 0,0"
         style="fill:#186e85;fill-opacity:1;fill-rule:nonzero;stroke:none;stroke-width:1.06666672"
         id="path3195" />
    </g>
    <g
       id="g3197"
       transform="matrix(2.3266482,0,0,-2.2342777,618.32506,792.56793)"
       style="fill:#186e85;fill-opacity:1"
       inkscape:export-xdpi="300.01001"
       inkscape:export-ydpi="300.01001">
      <path
         inkscape:connector-curvature="0"
         d="m 0,0 c 0.0384,-0.0128 0.0768,-0.02133333 0.1152,-0.03306667 0.002133,-0.0010667 0.0032,-0.0010667 0.004267,-0.0010667 z"
         style="fill:#186e85;fill-opacity:1;fill-rule:nonzero;stroke:none;stroke-width:1.06666672"
         id="path3199" />
    </g>
    <g
       id="g3201"
       transform="matrix(2.3266482,0,0,-2.2342777,691.16864,812.35663)"
       style="fill:#186e85;fill-opacity:1"
       inkscape:export-xdpi="300.01001"
       inkscape:export-ydpi="300.01001">
      <path
         inkscape:connector-curvature="0"
         d="m 0,0 c 0.03946667,-0.03093333 0.08,-0.05653333 0.11946667,-0.08746667 0.001067,-0.0010667 0.001067,-0.0010667 0.002133,-0.0010667 z"
         style="fill:#186e85;fill-opacity:1;fill-rule:nonzero;stroke:none;stroke-width:1.06666672"
         id="path3203" />
    </g>
    <g
       id="g3205"
       transform="matrix(2.3266482,0,0,-2.2342777,691.4503,812.55493)"
       style="fill:#186e85;fill-opacity:1"
       inkscape:export-xdpi="300.01001"
       inkscape:export-ydpi="300.01001">
      <path
         inkscape:connector-curvature="0"
         d="M 0,0 C -0.00106667,0 -0.00106667,0 -0.00213333,0.00106667 -0.00106667,0 0,0 0,0 Z"
         style="fill:#186e85;fill-opacity:1;fill-rule:nonzero;stroke:none;stroke-width:1.06666672"
         id="path3207" />
    </g>
    <g
       id="g3209"
       transform="matrix(2.3266482,0,0,-2.2342777,-19.948659,792.65043)"
       style="fill:#186e85;fill-opacity:1"
       inkscape:export-xdpi="300.01001"
       inkscape:export-ydpi="300.01001">
      <path
         inkscape:connector-curvature="0"
         d="m 0,0 -0.096,-0.02666667 h 0.0053333 C -0.0608,-0.016 -0.03093333,-0.01066667 0,0"
         style="fill:#186e85;fill-opacity:1;fill-rule:nonzero;stroke:none;stroke-width:1.06666672"
         id="path3211" />
    </g>
    <g
       id="g3213"
       transform="matrix(2.3266482,0,0,-2.2342777,593.03148,801.77963)"
       style="fill:#000000;fill-opacity:1"
       inkscape:export-xdpi="300.01001"
       inkscape:export-ydpi="300.01001">
      <path
         inkscape:connector-curvature="0"
         d="m 0,0 c 1.4336,0.0736 2.8757333,0.112 4.3264,0.112 2.2442667,0 4.4608,-0.11413333 6.660267,-0.28906667 -0.0384,0.0117333 -0.0768,0.0202667 -0.1152,0.0330667 l 0.119466,-0.0341333 C 12.6816,-0.31253333 14.359467,-0.4896 16.0192,-0.7232 c 8.0768,0.82346667 13.655467,9.4698667 13.655467,9.4698667 -2.261334,-6.7658667 1.4112,-11.5541334 4.336,-14.1205334 2.8416,-1.0890666 5.6064,-2.3317333 8.288,-3.7141333 -0.03947,0.029867 -0.08,0.055467 -0.119467,0.087467 l 0.122667,-0.0896 c 1.214933,-0.6261334 2.410666,-1.28 3.589333,-1.963734 8.205867,-2.864 17.3344,3.563734 17.3344,3.563734 -6.9344,-8.693334 1.3216,-17.84 1.3216,-17.84 9.328,-9.346134 14.622933,-17.492267 18.664533,-30.408534 2.049067,-11.156266 15.2768,-10.5344 15.2768,-10.5344 C 87.552,-68.282667 87.3472,-82.907733 87.3472,-82.907733 c 0,-2.910934 -0.1536,-5.786667 -0.445867,-8.6208 2.576,-6.021334 9.796267,-8.429867 9.796267,-8.429867 -5.904,1.1136 -9.8464,-1.75253 -12.2272,-4.62293 -3.674667,-13.6192 -7.880533,-23.7056 -17.3568,-33.59787 -9.070933,-6.8096 -2.615467,-18.37227 -2.615467,-18.37227 -4.418133,5.8848 -10.6944,5.3792 -14.436266,4.3648 -3.9616,-2.6208 -5.3984,-4.07466 -9.797334,-5.99466 -10.858666,-3.2768 -8.770133,-16.35414 -8.770133,-16.35414 -3.213867,10.6464 -15.431467,9.0496 -15.431467,9.0496 -4.740266,-0.84053 -6.754133,-0.44266 -11.736533,-0.44266 -9.824,0 -19.243733,1.7184 -27.9904,4.85013 -8.229333,0.87573 -14.018133,-8.07787 -14.018133,-8.07787 4.168533,8.69334 -1.6704,15.06454 -4.010667,17.15094 -11.975467,7.99253 -21.742933,19.01653 -28.2336,31.97226 -5.2672,5.55627 -15.0464,3.81014 -15.0464,3.81014 8.731733,2.70613 8.571733,12.14293 7.947733,16.687997 -0.141866,0.695466 -0.251733,1.4016 -0.376533,2.103466 -0.05547,0.245334 -0.09067,0.379734 -0.09067,0.379734 l 0.0448,-0.123734 c -0.8032,4.637867 -1.245866,9.399467 -1.245866,14.267734 0,10.0672 1.794133,19.7152 5.076266,28.644266 -0.8928,-0.779733 -1.786666,-1.559466 -2.663466,-2.343466 0,0 -12.976,-13.7056 -25.581864,-39.8784 0.8576,-1.636267 1.49973,-3.4176 1.868797,-5.326937 0.696533,-3.62453 0.334933,-7.1648 -0.871467,-10.3488 -1.20746,-3.16906 -3.2736,-5.98933 -6.12586,-7.8144 0.496,-1.39413 1.02506,-2.7776 1.57866,-4.15466 0.55254,-1.37494 1.13067,-2.74027 1.73867,-4.0928 3.38133,0.50453 6.87893,-0.2368 9.98613,-1.7888 3.118934,-1.56907 5.858134,-3.94667 7.872,-7.0752 2.0128,-3.136 3.009067,-6.55894 3.079467,-9.94347 0.0576,-3.37707 -0.801067,-6.72 -2.7808,-9.41547 0.984533,-1.12426 1.991467,-2.22933 3.022933,-3.3184 1.026134,-1.08693 2.078934,-2.15146 3.149867,-3.20426 2.962133,1.64906 6.497067,2.17706 9.9776,1.80693 3.492267,-0.37867 6.9344,-1.64587 9.984,-3.86773 3.045333,-2.22294 5.2512,-5.072 6.581333,-8.20694 1.314134,-3.13066 1.757867,-6.55146 0.923734,-9.7536 1.339733,-0.70613 2.693333,-1.392 4.059733,-2.048 1.3696,-0.656 2.753067,-1.28746 4.145067,-1.8976 2.149333,2.57174 5.2512,4.2848 8.637866,5.15307 2.699734,0.68053 5.584,0.82453 8.498134,0.35627 1.6416,-0.51414 3.300266,-0.9888 4.974933,-1.4208 2.522667,-1.06987 4.718933,-2.58134 6.523733,-4.40854 2.407467,-2.45546 4.1088,-5.48586 4.5344,-8.76266 1.5136003,-0.18774 3.0336003,-0.35627 4.5557337,-0.48747 1.5189333,-0.13013 3.04,-0.2432 4.5632,-0.31787 1.03679997,3.1488 3.2778666,5.83147 6.1024,7.81867 2.0896,1.46453 4.5024,2.5504 7.1466663,3.1584 1.829334,0.1312 3.646934,0.30933 5.448534,0.53547 2.878933,-0.0821 5.616,-0.73707 8.08,-1.86347 3.1616,-1.46027 5.882666,-3.69707 7.499733,-6.60693 1.486933,0.34773 2.9664,0.7264 4.4384,1.12533 1.473067,0.40533 2.932267,0.83413 4.389333,1.2928 -0.206933,3.29493 0.884267,6.57707 2.7808,9.42293 1.908267,2.83947 4.619734,5.2512 8.040534,6.89707 3.418666,1.64587 7.047466,2.28587 10.552533,2.04053 3.492267,-0.25066 6.871467,-1.38986 9.470933,-3.53386 1.253334,0.84266 2.4864,1.71093 3.707734,2.59733 1.217066,0.88853 2.418133,1.7984 3.6,2.73067 -1.429334,2.99626 -1.652267,6.44053 -0.949334,9.74506 0.709334,3.3184 2.337067,6.5056 4.9088,9.22987 2.574934,2.71787 5.725867,4.56853 9.082667,5.5584 3.3536,0.97707 6.923733,1.0848 10.153603,-0.0128 0.8576,1.22133 1.68427,2.45653 2.4928,3.70667 0.80853,1.25226 1.58293,2.5216 2.33707,3.80053 -2.44694,2.29973 -3.936,5.43787 -4.51947,8.76587 -0.576,3.34506 -0.2496,6.88853 1.1296,10.3232 1.3856,3.43573 3.61813,6.2656 6.3808,8.36266 2.75947,2.0832 6.0512,3.43574 9.472,3.54134 0.34133,1.44 0.64533,2.8832 0.9248,4.3328 0.28053,1.4496 0.53013,2.90453 0.74987,4.36053 -3.15307,1.284267 -5.71947,3.685333 -7.51894,6.583467 -1.792,2.9088 -2.82133,6.322133 -2.82346,10.0032 0.002,3.68 1.03146,7.093333 2.82346,10.0032 1.79947,2.898133 4.36587,5.298133 7.51894,6.5824 -0.21974,1.456 -0.46934,2.910933 -0.74987,4.360533 -0.27947,1.4496 -0.58347,2.891733 -0.9248,4.333867 -3.4208,0.1056 -6.71253,1.458133 -9.472,3.541333 -2.76267,2.096 -4.9952,4.926933 -6.3808,8.3616 -1.3792,3.435733 -1.7056,6.9792 -1.1296,10.321067 0.58347,3.330133 2.07253,6.469333 4.51947,8.769066 -0.75414,1.278934 -1.52854,2.548267 -2.33707,3.800534 -0.80853,1.249066 -1.6352,2.485333 -2.4928,3.7056 -3.22987,-1.0976 -6.800003,-0.9888 -10.153603,-0.01493 -3.3568,0.992 -6.507733,2.843734 -9.082667,5.5616 -2.571733,2.724267 -4.199466,5.9104003 -4.9088,9.2288003 -0.702933,3.3056 -0.48,6.7488 0.949334,9.7450667 -1.181867,0.9333333 -2.382934,1.8421333 -3.6,2.7306667 C 75.051733,9.0101333 73.818667,9.8784 72.565333,10.72 69.965867,8.5749333 66.586667,7.4378667 63.0944,7.1872 59.589333,6.9408 55.960533,7.5818667 52.541867,9.2234667 49.121067,10.8736 46.4096,13.284267 44.501333,16.1248 42.6048,18.970667 41.5136,22.2528 41.720533,25.547733 40.263467,26.0064 38.804267,26.4352 37.3312,26.840533 37.102933,26.9024 36.8704,26.9536 36.642133,27.0144 l -1.6992,-0.8128 C 27.2224,18.952533 14.670933,10.081067 0,0"
         style="fill:#000000;fill-opacity:1;fill-rule:nonzero;stroke:none;stroke-width:1.06666672"
         id="path3215" />
    </g>
    <g
       id="g3217"
       transform="matrix(2.3266482,0,0,-2.2342777,9.2504845,801.77963)"
       style="fill:#186e85;fill-opacity:1"
       inkscape:export-xdpi="300.01001"
       inkscape:export-ydpi="300.01001">
      <path
         inkscape:connector-curvature="0"
         d="m 0,0 c -1.4336,0.0736 -2.8757333,0.112 -4.3264,0.112 -2.2442667,0 -4.4608,-0.11413333 -6.660267,-0.28906667 0.0384,0.0117333 0.0768,0.0202667 0.1152,0.0330667 l -0.119466,-0.0341333 C -12.6816,-0.31253333 -14.359467,-0.4896 -16.0192,-0.7232 c -8.0768,0.82346667 -13.655467,9.4698667 -13.655467,9.4698667 2.261334,-6.7658667 -1.4112,-11.5541334 -4.336,-14.1205334 -2.8416,-1.0890666 -5.6064,-2.3317333 -8.288,-3.7141333 0.03947,0.029867 0.08,0.055467 0.119467,0.087467 l -0.122667,-0.0896 c -1.214933,-0.6261334 -2.410666,-1.28 -3.589333,-1.963734 -8.205867,-2.864 -17.3344,3.563734 -17.3344,3.563734 6.9344,-8.693334 -1.3216,-17.84 -1.3216,-17.84 -9.328,-9.346134 -14.622933,-17.492267 -18.664533,-30.408534 -2.049067,-11.156266 -15.2768,-10.5344 -15.2768,-10.5344 10.936533,-2.0096 11.141333,-16.634666 11.141333,-16.634666 0,-2.910934 0.1536,-5.786667 0.445867,-8.6208 -2.576,-6.021334 -9.796267,-8.429867 -9.796267,-8.429867 5.904,1.1136 9.8464,-1.75253 12.2272,-4.62293 3.674667,-13.6192 7.880533,-23.7056 17.3568,-33.59787 9.070933,-6.8096 2.615467,-18.37227 2.615467,-18.37227 4.418133,5.8848 10.6944,5.3792 14.436266,4.3648 3.9616,-2.6208 5.3984,-4.07466 9.797334,-5.99466 10.858666,-3.2768 8.770133,-16.35414 8.770133,-16.35414 3.213867,10.6464 15.431467,9.0496 15.431467,9.0496 4.740266,-0.84053 6.754133,-0.44266 11.736533,-0.44266 9.824,0 19.243733,1.7184 27.9904,4.85013 8.229333,0.87573 14.018133,-8.07787 14.018133,-8.07787 -4.168533,8.69334 1.6704,15.06454 4.010667,17.15094 11.975467,7.99253 21.742933,19.01653 28.2336,31.97226 5.2672,5.55627 15.0464,3.81014 15.0464,3.81014 -8.731733,2.70613 -8.571733,12.14293 -7.947733,16.687997 0.141866,0.695466 0.251733,1.4016 0.376533,2.103466 0.05547,0.245334 0.09067,0.379734 0.09067,0.379734 l -0.0448,-0.123734 c 0.8032,4.637867 1.245866,9.399467 1.245866,14.267734 0,10.0672 -1.794133,19.7152 -5.076266,28.644266 0.8928,-0.779733 1.786666,-1.559466 2.663466,-2.343466 0,0 12.976,-13.7056 25.581864,-39.8784 -0.8576,-1.636267 -1.49973,-3.4176 -1.868797,-5.326937 -0.696533,-3.62453 -0.334933,-7.1648 0.871467,-10.3488 1.20746,-3.16906 3.2736,-5.98933 6.12586,-7.8144 -0.496,-1.39413 -1.02506,-2.7776 -1.57866,-4.15466 -0.55254,-1.37494 -1.13067,-2.74027 -1.73867,-4.0928 -3.38133,0.50453 -6.87893,-0.2368 -9.98613,-1.7888 -3.118934,-1.56907 -5.858134,-3.94667 -7.872,-7.0752 -2.0128,-3.136 -3.009067,-6.55894 -3.079467,-9.94347 -0.0576,-3.37707 0.801067,-6.72 2.7808,-9.41547 -0.984533,-1.12426 -1.991467,-2.22933 -3.022933,-3.3184 -1.026134,-1.08693 -2.078934,-2.15146 -3.149867,-3.20426 -2.962133,1.64906 -6.497067,2.17706 -9.9776,1.80693 -3.492267,-0.37867 -6.9344,-1.64587 -9.984,-3.86773 -3.045333,-2.22294 -5.2512,-5.072 -6.581333,-8.20694 -1.314134,-3.13066 -1.757867,-6.55146 -0.923734,-9.7536 -1.339733,-0.70613 -2.693333,-1.392 -4.059733,-2.048 -1.3696,-0.656 -2.753067,-1.28746 -4.145067,-1.8976 -2.149333,2.57174 -5.2512,4.2848 -8.637866,5.15307 -2.699734,0.68053 -5.584,0.82453 -8.498134,0.35627 -1.6416,-0.51414 -3.300266,-0.9888 -4.974933,-1.4208 -2.522667,-1.06987 -4.718933,-2.58134 -6.523733,-4.40854 -2.407467,-2.45546 -4.1088,-5.48586 -4.5344,-8.76266 -1.5136003,-0.18774 -3.0336003,-0.35627 -4.5557337,-0.48747 -1.5189333,-0.13013 -3.04,-0.2432 -4.5632,-0.31787 -1.03679997,3.1488 -3.2778666,5.83147 -6.1024,7.81867 -2.0896,1.46453 -4.5024,2.5504 -7.1466663,3.1584 -1.829334,0.1312 -3.646934,0.30933 -5.448534,0.53547 -2.878933,-0.0821 -5.616,-0.73707 -8.08,-1.86347 -3.1616,-1.46027 -5.882666,-3.69707 -7.499733,-6.60693 -1.486933,0.34773 -2.9664,0.7264 -4.4384,1.12533 -1.473067,0.40533 -2.932267,0.83413 -4.389333,1.2928 0.206933,3.29493 -0.884267,6.57707 -2.7808,9.42293 -1.908267,2.83947 -4.619734,5.2512 -8.040534,6.89707 -3.418666,1.64587 -7.047466,2.28587 -10.552533,2.04053 -3.492267,-0.25066 -6.871467,-1.38986 -9.470933,-3.53386 -1.253334,0.84266 -2.4864,1.71093 -3.707734,2.59733 -1.217066,0.88853 -2.418133,1.7984 -3.6,2.73067 1.429334,2.99626 1.652267,6.44053 0.949334,9.74506 -0.709334,3.3184 -2.337067,6.5056 -4.9088,9.22987 -2.574934,2.71787 -5.725867,4.56853 -9.082667,5.5584 -3.3536,0.97707 -6.923733,1.0848 -10.153603,-0.0128 -0.8576,1.22133 -1.68427,2.45653 -2.4928,3.70667 -0.80853,1.25226 -1.58293,2.5216 -2.33707,3.80053 2.44694,2.29973 3.936,5.43787 4.51947,8.76587 0.576,3.34506 0.2496,6.88853 -1.1296,10.3232 -1.3856,3.43573 -3.61813,6.2656 -6.3808,8.36266 -2.75947,2.0832 -6.0512,3.43574 -9.472,3.54134 -0.34133,1.44 -0.64533,2.8832 -0.9248,4.3328 -0.28053,1.4496 -0.53013,2.90453 -0.74987,4.36053 3.15307,1.284267 5.71947,3.685333 7.51894,6.583467 1.792,2.9088 2.82133,6.322133 2.82346,10.0032 -0.002,3.68 -1.03146,7.093333 -2.82346,10.0032 -1.79947,2.898133 -4.36587,5.298133 -7.51894,6.5824 0.21974,1.456 0.46934,2.910933 0.74987,4.360533 0.27947,1.4496 0.58347,2.891733 0.9248,4.333867 3.4208,0.1056 6.71253,1.458133 9.472,3.541333 2.76267,2.096 4.9952,4.926933 6.3808,8.3616 1.3792,3.435733 1.7056,6.9792 1.1296,10.321067 -0.58347,3.330133 -2.07253,6.469333 -4.51947,8.769066 0.75414,1.278934 1.52854,2.548267 2.33707,3.800534 0.80853,1.249066 1.6352,2.485333 2.4928,3.7056 3.22987,-1.0976 6.800003,-0.9888 10.153603,-0.01493 3.3568,0.992 6.507733,2.843734 9.082667,5.5616 2.571733,2.724267 4.199466,5.9104006 4.9088,9.2288006 0.702933,3.3056 0.48,6.7488 -0.949334,9.7450667 1.181867,0.9333333 2.382934,1.8421333 3.6,2.7306667 1.221334,0.8874666 2.4544,1.7557333 3.707734,2.597333 2.599466,-2.1450664 5.978666,-3.282133 9.470933,-3.5327997 3.505067,-0.2464 7.133867,0.3946667 10.552533,2.0362667 3.4208,1.650133 6.132267,4.0608 8.040534,6.901333 1.896533,2.845867 2.987733,6.128 2.7808,9.422933 1.457066,0.458667 2.916266,0.887467 4.389333,1.2928 0.228267,0.06187 0.4608,0.113067 0.689067,0.173867 l 1.6992,-0.8128 C -27.2224,18.952533 -14.670933,10.081067 0,0"
         style="fill:#000000;fill-opacity:1;fill-rule:nonzero;stroke:none;stroke-width:1.06666672"
         id="path3219" />
    </g>
    <g
       id="g3221"
       transform="matrix(2.3266482,0,0,-2.2342777,669.34157,843.44753)"
       style="fill:#000000;fill-opacity:1"
       inkscape:export-xdpi="300.01001"
       inkscape:export-ydpi="300.01001">
      <path
         inkscape:connector-curvature="0"
         d="m 0,0 c -11.371733,11.3344 -26.017067,17.3632 -40.88,18.1184 -2.482133,-1.6992 -5.005867,-3.428267 -7.563733,-5.186133 9.381333,-1.438934 18.407466,-5.7568003 25.6448,-12.96960033 C -4.6752,-18.101333 -4.6272,-47.4368 -22.6912,-65.559467 -40.7552,-83.6832 -70.0896,-83.7312 -88.213333,-65.6672 c -3.053867,3.0432 -5.581867,6.4128 -7.6096,9.989333 -5.115737,9.026134 -6.963197,19.3984 -5.535997,29.4016 -0.74987,-0.629333 -1.49014,-1.261866 -2.2304,-1.893333 -0.3552,-0.304 -0.71254,-0.605867 -1.0656,-0.909867 -5.14027,-20.602666 0.34453,-43.3056 16.47893,-59.386666 24.429867,-24.348797 63.972267,-24.283737 88.32106667,0.145066 C 24.493867,-63.8912 24.429867,-24.3488 0,0"
         style="fill:#000000;fill-opacity:1;fill-rule:nonzero;stroke:none;stroke-width:1.06666672"
         id="path3223" />
    </g>
    <g
       id="g3225"
       transform="matrix(2.3266482,0,0,-2.2342777,178.74886,917.39363)"
       style="fill:#000000;fill-opacity:1"
       inkscape:export-xdpi="300.01001"
       inkscape:export-ydpi="300.01001">
      <path
         inkscape:connector-curvature="0"
         d="M 0,0 C -0.2112,1.1882667 -0.464,2.3690667 -0.74453333,3.5456 -0.99946667,3.7664 -1.2597333,3.984 -1.5157333,4.2037333 -2.3776,4.9450667 -3.2416,5.6864 -4.1162667,6.4245333 c 1.8026667,-13.8048 -2.5984,-28.2624003 -13.2202663,-38.8490663 -18.123734,-18.062934 -47.4592,-18.014934 -65.522134,0.107733 -18.064003,18.123733 -18.016003,47.4592 0.107734,65.522133 7.114666,7.092267 15.959466,11.390934 25.170133,12.901334 -2.580267,1.773866 -5.127467,3.518933 -7.632,5.234133 -14.676267,-0.8736 -29.104,-6.901333 -40.33707,-18.097067 -24.42986,-24.3498663 -24.49493,-63.892266 -0.14506,-88.321066 24.348797,-24.429867 63.891197,-24.494934 88.319997,-0.146134 C -2.32,-40.218667 3.4656,-19.4496 0,0"
         style="fill:#000000;fill-opacity:1;fill-rule:nonzero;stroke:none;stroke-width:1.06666672"
         id="path3227" />
    </g>
    <g
       id="g3229"
       transform="matrix(2.3266482,0,0,-2.2342777,300.00681,957.74773)"
       style="fill:#186e85;fill-opacity:1"
       inkscape:export-xdpi="300.01001"
       inkscape:export-ydpi="300.01001">
      <path
         inkscape:connector-curvature="0"
         d="m 0,0 c -8.4384,0 -15.957333,13.069867 -20.849067,27.010133 -1.095466,3.121067 -2.056533,6.279467 -2.868266,9.3504 -1.8976,7.176534 -2.974934,13.848534 -2.974934,18.2624 0,14.7424 11.950934,26.692267 26.692267,26.692267 14.741333,0 26.692267,-11.949867 26.692267,-26.692267 0,-4.417066 -1.079467,-11.095466 -2.978134,-18.276266 C 22.8864,33.218133 21.904,29.997867 20.784,26.821333 15.8912,12.951467 8.4010667,0 0,0 m 0,85.502933 c -19.077333,0 -34.542933,-15.464533 -34.542933,-34.542933 0,-3.284267 0.458666,-7.533867 1.314133,-12.317867 1.330133,-7.428266 3.620267,-16.146133 6.6432,-24.5472 1.84,-5.1135997 3.952,-10.1066663 6.283733,-14.62186633 2.270934,-4.39679997 4.749867,-8.33599997 7.392,-11.48586667 3.9893337,-4.756267 8.3456003,-7.716267 12.909867,-7.716267 4.4565333,0 8.7168,2.818134 12.628267,7.3792 2.852266,3.325867 5.52,7.5808003 7.943466,12.346667 C 22.672,4.1269333 24.5888,8.64 26.2848,13.268267 c 3.195733,8.718933 5.605333,17.8368 6.973867,25.546666 0.836266,4.7136 1.284266,8.900267 1.284266,12.145067 0,19.0784 -15.4656,34.542933 -34.542933,34.542933"
         style="fill:#186e85;fill-opacity:1;fill-rule:nonzero;stroke:none;stroke-width:1.06666672"
         id="path3231" />
    </g>
    <path
       id="path3235"
       style="fill:#000000;fill-opacity:1;fill-rule:nonzero;stroke:none;stroke-width:1.9960953"
       d="m 600.87159,738.08643 -28.72137,15.1049 -172.90907,129.2091 c 17.63539,-48.0816 4.62849,-60.565 4.62849,-60.565 0,0 101.24581,-46.2132 127.28191,-64.4521 9.57464,-6.7064 8.99142,-9.6377 -10.56236,-5.0858 -3.16421,1.461 -6.2565,2.8528 -9.30907,4.2088 -14.60265,6.4943 -27.94458,11.8614 -39.97614,16.2823 -52.73985,19.378 -80.48343,20.7507 -80.48343,20.7507 -20.19407,-33.3842 -45.84801,-40.1812 -45.84801,-40.1812 l 71.32327,-35.4625 h 155.909 l 245.61464,-93.9111 z m -223.48478,132.9365 c -3.18161,17.226 -8.79042,37.6002 -16.22575,57.0807 -3.94599,10.3385 -8.40323,20.4243 -13.29231,29.6522 -5.63855,10.6458 -11.84293,20.1525 -18.48164,27.5858 -9.10062,10.1883 -19.01026,16.48477 -29.38153,16.48477 -10.61945,0 -20.75495,-6.61097 -30.03425,-17.23787 -6.14731,-7.04 -11.91739,-15.8413 -17.20105,-25.6649 -5.42513,-10.0883 -10.339,-21.2418 -14.62004,-32.667 -7.03083,-18.7703 -12.35917,-38.2484 -15.45391,-54.8476 -1.99285,-10.6888 -3.06001,-20.1812 -3.06001,-27.5216 0,-42.624 35.98301,-77.1785 80.36926,-77.1785 44.38872,0 80.37173,34.5545 80.37173,77.1785 0,7.2498 -1.04483,16.6064 -2.9905,27.1355 M 66.283502,756.85913 c 24.792787,17.8599 128.016538,64.9763 128.016538,64.9763 0,0 -13.00688,12.4834 4.62848,60.565 L 26.019475,753.19133 -1.9822085,738.46533 -219.64976,623.98453 25.967355,717.89563 H 181.87388 l 71.32326,35.4625 c 0,0 -25.65394,6.797 -45.84552,40.1812 0,0 -27.27702,-1.3536 -79.13582,-20.2574 -12.2748,-4.4757 -25.93936,-9.9453 -40.9366,-16.604 -3.179135,-1.4109 -6.39798,-2.8575 -9.698723,-4.3804 -19.035083,-4.4304 -20.087347,-1.7707 -11.296975,4.5616 M 999.41466,469.37723 c -3.26105,-4.3398 -8.58936,-6.797 -14.15597,-6.5181 l -17.00993,0.8985 c -7.42543,0.3765 -13.62486,5.5219 -15.11144,12.5262 l -11.3342,53.4797 c -3.49928,16.511 -15.47624,30.2193 -31.79132,36.3824 l -291.65127,110.334 c -23.28631,8.8012 -48.31734,12.4547 -73.25403,10.6578 l -103.59603,-7.4285 c -17.05712,-1.2226 -34.15892,1.723 -49.70713,8.5677 l -90.74797,39.9357 -90.74797,-39.9357 c -15.5507,-6.8447 -32.65003,-9.7903 -49.70713,-8.5677 l -103.59605,7.4285 c -24.936699,1.7969 -49.9701855,-1.8566 -73.256529,-10.6578 l -291.651251,-110.334 c -16.31508,-6.1631 -28.28956,-19.8714 -31.78884,-36.3824 l -11.33667,-53.4797 c -1.4841,-7.0043 -7.686,-12.1497 -15.10894,-12.5262 l -17.00997,-0.8985 c -5.56907,-0.2789 -10.89493,2.1783 -14.15843,6.5181 -3.24118,4.3351 -3.96337,9.9977 -1.8911,14.95 l 37.79965,90.8582 c 8.44294,20.3409 24.57686,36.9044 45.15559,46.3539 l 239.109966,109.9098 4.91139,2.2569 c 18.022525,16.2512 47.364325,36.1488 81.6448615,58.768 6.0331755,3.9824 12.2226745,8.0506 18.5313035,12.1974 5.827154,3.8298 11.751132,7.7288 17.756971,11.6921 6.60892,4.3637 13.302237,8.8013 20.057568,13.3151 34.99032,23.3843 71.41507,48.7061 104.22889,75.2624 0.0346,0.029 0.0694,0.057 0.10406,0.086 2.03504,1.6468 4.04526,3.3032 6.053,4.9619 0.59312,0.491 1.20117,0.9771 1.79182,1.4681 2.90366,2.4118 5.77505,4.8332 8.60923,7.2641 0,0 29.32446,29.7331 58.24685,86.57077 19.15919,37.6455 38.14217,87.1594 48.31242,147.8841 3.30569,19.7379 5.90905,28.0745 7.93913,27.6384 2.03009,0.4361 4.63343,-7.9005 7.93914,-27.6384 9.94441,-59.3805 28.31686,-108.027 47.03924,-145.3555 29.32942,-58.47487 59.51752,-89.09937 59.51752,-89.09937 2.0425,-1.7517 4.12222,-3.4915 6.19943,-5.2336 1.35753,-1.1392 2.72248,-2.276 4.0949,-3.4104 0.82147,-0.6792 1.65288,-1.3561 2.47929,-2.0329 1.72482,-1.4133 3.44468,-2.8265 5.18936,-4.2326 31.99979,-25.7818 67.34001,-50.3934 101.39716,-73.1771 7.31625,-4.8975 14.56794,-9.7045 21.72037,-14.4233 5.94879,-3.9276 11.82061,-7.7908 17.59568,-11.5873 6.40292,-4.2087 12.68424,-8.3389 18.80428,-12.3761 34.1316,-22.5262 63.33695,-42.3452 81.29991,-58.5416 l 3.95345,-1.8184 240.06541,-110.3483 c 20.58123,-9.4495 36.71266,-26.013 45.15558,-46.3538 l 37.80219,-90.8583 c 2.0722,-4.9523 1.3475,-10.6149 -1.89363,-14.95"
       inkscape:connector-curvature="0"
       inkscape:export-xdpi="300.01001"
       inkscape:export-ydpi="300.01001" />
    <g
       id="g3237"
       transform="matrix(2.3266482,0,0,-2.2342777,413.82,1014.6356)"
       style="fill:#186e85;fill-opacity:1"
       inkscape:export-xdpi="300.01001"
       inkscape:export-ydpi="300.01001">
      <path
         inkscape:connector-curvature="0"
         d="M 0,0 C -0.1312,0.95146667 -0.2816,1.6874667 -0.37546667,2.1034667 -0.25173333,1.4016 -0.14186667,0.69546667 0,0"
         style="fill:#186e85;fill-opacity:1;fill-rule:nonzero;stroke:none;stroke-width:1.06666672"
         id="path3239" />
    </g>
    <flowRoot
       xml:space="preserve"
       id="flowRoot4300"
       style="font-style:normal;font-weight:normal;font-size:12.80000019px;line-height:0.01%;font-family:sans-serif;letter-spacing:0px;word-spacing:0px;fill:#000000;fill-opacity:1;stroke:none;stroke-width:1.06666672px;stroke-linecap:butt;stroke-linejoin:miter;stroke-opacity:1"><flowRegion
         id="flowRegion4302"
         style="font-family:sans-serif;stroke-width:1.06666672px"><rect
           id="rect4304"
           width="102.09524"
           height="448"
           x="1229.7144"
           y="364.34286"
           style="font-family:sans-serif;stroke-width:1.13777781px" /></flowRegion><flowPara
         id="flowPara4306"
         style="font-size:42.66666794px;line-height:1.25;font-family:sans-serif;stroke-width:1.06666672px"> </flowPara></flowRoot>    <text
       xml:space="preserve"
       style="font-style:normal;font-weight:normal;font-size:12.80000019px;line-height:0%;font-family:sans-serif;letter-spacing:0px;word-spacing:0px;fill:#000000;fill-opacity:1;stroke:none;stroke-width:1.06666672px;stroke-linecap:butt;stroke-linejoin:miter;stroke-opacity:1"
       x="811.43427"
       y="1452.6101"
       id="text4308"
       inkscape:export-xdpi="300.01001"
       inkscape:export-ydpi="300.01001"><tspan
         sodipodi:role="line"
         x="811.43427"
         y="1452.6101"
         id="tspan4314"
         style="font-size:42.66666794px;line-height:1.25;font-family:sans-serif;stroke-width:1.06666672px"> </tspan></text>
    <flowRoot
       xml:space="preserve"
       id="flowRoot4324"
       style="font-style:normal;font-weight:normal;font-size:12.80000019px;line-height:0.01%;font-family:sans-serif;letter-spacing:0px;word-spacing:0px;fill:#000000;fill-opacity:1;stroke:none;stroke-width:1.06666672px;stroke-linecap:butt;stroke-linejoin:miter;stroke-opacity:1"
       transform="matrix(1.8918469,0,0,1.8510536,-411.29924,-568.70824)"
       inkscape:export-xdpi="300.01001"
       inkscape:export-ydpi="300.01001"><flowRegion
         id="flowRegion4326"
         style="font-family:sans-serif;stroke-width:1.06666672px"><rect
           id="rect4328"
           width="20.675346"
           height="94.863358"
           x="342.9675"
           y="685.28821"
           style="font-family:sans-serif;stroke-width:1.13777781px" /></flowRegion><flowPara
         id="flowPara4330"
         style="font-size:42.66666794px;line-height:1.25;font-family:sans-serif;stroke-width:1.06666672px"> </flowPara></flowRoot>  </g>
</svg>
